<svg width="136" height="77" viewBox="0 0 136 77" fill="none" xmlns="http://www.w3.org/2000/svg">
<path d="M17.0313 33.4805C17.0313 34.1877 17.1077 34.7611 17.2415 35.1815C17.3944 35.602 17.5856 36.0607 17.8531 36.5576C17.9487 36.7105 17.9869 36.8634 17.9869 36.9972C17.9869 37.1884 17.8722 37.3795 17.6238 37.5706L16.4197 38.3733C16.2477 38.488 16.0757 38.5454 15.9228 38.5454C15.7316 38.5454 15.5405 38.4498 15.3494 38.2778C15.0818 37.9911 14.8525 37.6853 14.6613 37.3795C14.4702 37.0546 14.2791 36.6914 14.0688 36.2518C12.5781 38.0102 10.705 38.8894 8.44974 38.8894C6.84428 38.8894 5.56374 38.4307 4.62722 37.5133C3.69071 36.5959 3.21289 35.3727 3.21289 33.8437C3.21289 32.2191 3.78627 30.9003 4.95214 29.9065C6.118 28.9126 7.66612 28.4157 9.63472 28.4157C10.2845 28.4157 10.9535 28.473 11.6607 28.5686C12.3678 28.6641 13.0941 28.817 13.8586 28.9891V27.5938C13.8586 26.1413 13.5528 25.1283 12.9603 24.5358C12.3487 23.9433 11.3166 23.6566 9.84496 23.6566C9.17602 23.6566 8.48797 23.7331 7.7808 23.9051C7.07363 24.0771 6.38558 24.2874 5.71664 24.5549C5.41084 24.6887 5.18149 24.7652 5.0477 24.8034C4.91391 24.8416 4.81835 24.8607 4.7419 24.8607C4.47432 24.8607 4.34053 24.6696 4.34053 24.2683V23.3317C4.34053 23.0259 4.37876 22.7966 4.47432 22.6628C4.56988 22.529 4.7419 22.3952 5.00947 22.2614C5.67841 21.9174 6.48114 21.6307 7.41766 21.4014C8.35418 21.1529 9.34803 21.0382 10.3992 21.0382C12.6736 21.0382 14.3364 21.5543 15.4067 22.5863C16.4579 23.6184 16.9931 25.1857 16.9931 27.288V33.4805H17.0313ZM9.27158 36.3856C9.9023 36.3856 10.5521 36.271 11.2402 36.0416C11.9282 35.8123 12.5398 35.3918 13.0559 34.8184C13.3617 34.4553 13.591 34.0539 13.7057 33.5952C13.8204 33.1365 13.8968 32.5822 13.8968 31.9324V31.1297C13.3426 30.9959 12.7501 30.8812 12.1385 30.8048C11.5269 30.7283 10.9344 30.6901 10.3419 30.6901C9.06134 30.6901 8.12483 30.9385 7.49411 31.4546C6.8634 31.9706 6.55759 32.6969 6.55759 33.6525C6.55759 34.5508 6.78694 35.2198 7.26476 35.6785C7.72346 36.1563 8.3924 36.3856 9.27158 36.3856ZM24.619 38.4498C24.275 38.4498 24.0456 38.3925 23.8927 38.2587C23.7398 38.144 23.606 37.8764 23.4913 37.5133L18.9999 22.7392C18.8852 22.357 18.8279 22.1085 18.8279 21.9747C18.8279 21.6689 18.9808 21.4969 19.2866 21.4969H21.1596C21.5228 21.4969 21.7712 21.5543 21.905 21.6881C22.0579 21.8027 22.1726 22.0703 22.2873 22.4334L25.4982 35.086L28.4797 22.4334C28.5753 22.0512 28.69 21.8027 28.8429 21.6881C28.9958 21.5734 29.2633 21.4969 29.6074 21.4969H31.1364C31.4995 21.4969 31.748 21.5543 31.9009 21.6881C32.0538 21.8027 32.1876 22.0703 32.264 22.4334L35.2838 35.2389L38.5903 22.4334C38.705 22.0512 38.8388 21.8027 38.9725 21.6881C39.1254 21.5734 39.3739 21.4969 39.7179 21.4969H41.4954C41.8012 21.4969 41.9732 21.6498 41.9732 21.9747C41.9732 22.0703 41.9541 22.1659 41.935 22.2805C41.9159 22.3952 41.8777 22.5481 41.8012 22.7584L37.1951 37.5324C37.0804 37.9146 36.9466 38.1631 36.7937 38.2778C36.6408 38.3925 36.3923 38.4689 36.0674 38.4689H34.4237C34.0606 38.4689 33.8121 38.4116 33.6592 38.2778C33.5063 38.144 33.3726 37.8955 33.2961 37.5133L30.3337 25.1857L27.3903 37.4942C27.2948 37.8764 27.1801 38.1249 27.0272 38.2587C26.8743 38.3925 26.6067 38.4498 26.2627 38.4498H24.619ZM49.1787 38.9658C48.1848 38.9658 47.191 38.8512 46.2353 38.6218C45.2797 38.3925 44.5343 38.144 44.0374 37.8573C43.7316 37.6853 43.5213 37.4942 43.4449 37.3221C43.3684 37.1501 43.3302 36.959 43.3302 36.787V35.8123C43.3302 35.4109 43.4831 35.2198 43.7698 35.2198C43.8845 35.2198 43.9992 35.2389 44.1138 35.2771C44.2285 35.3153 44.4005 35.3918 44.5916 35.4682C45.2415 35.7549 45.9486 35.9843 46.694 36.1372C47.4585 36.2901 48.2039 36.3665 48.9684 36.3665C50.1725 36.3665 51.109 36.1563 51.7589 35.7358C52.4087 35.3153 52.7527 34.7037 52.7527 33.9201C52.7527 33.385 52.5807 32.9454 52.2367 32.5822C51.8927 32.2191 51.2428 31.8942 50.3063 31.5884L47.535 30.7283C46.1398 30.2887 45.1077 29.6389 44.477 28.7788C43.8463 27.9379 43.5213 27.0014 43.5213 26.0075C43.5213 25.2048 43.6934 24.4976 44.0374 23.886C44.3814 23.2744 44.8401 22.7392 45.4135 22.3188C45.9869 21.8792 46.6367 21.5543 47.4012 21.3249C48.1657 21.0956 48.9684 21 49.8094 21C50.2299 21 50.6694 21.0191 51.0899 21.0765C51.5295 21.1338 51.9309 21.2102 52.3322 21.2867C52.7145 21.3823 53.0776 21.4778 53.4217 21.5925C53.7657 21.7072 54.0333 21.8218 54.2244 21.9365C54.492 22.0894 54.6831 22.2423 54.7978 22.4143C54.9124 22.5672 54.9698 22.7775 54.9698 23.045V23.9433C54.9698 24.3447 54.8169 24.5549 54.5302 24.5549C54.3773 24.5549 54.1288 24.4785 53.8039 24.3256C52.7145 23.8287 51.4913 23.5802 50.1343 23.5802C49.0449 23.5802 48.1848 23.7522 47.5923 24.1154C46.9998 24.4785 46.694 25.0328 46.694 25.8164C46.694 26.3515 46.8852 26.8102 47.2674 27.1734C47.6497 27.5365 48.3568 27.8996 49.3698 28.2246L52.0838 29.0846C53.4599 29.5242 54.4537 30.1358 55.0462 30.9194C55.6387 31.703 55.9254 32.6013 55.9254 33.5952C55.9254 34.417 55.7534 35.1624 55.4285 35.8123C55.0845 36.4621 54.6258 37.0355 54.0333 37.4942C53.4408 37.972 52.7336 38.316 51.9118 38.5645C51.0517 38.832 50.1534 38.9658 49.1787 38.9658Z" fill="white"/>
<path d="M52.794 48.2507C46.5059 52.8951 37.3701 55.3606 29.5148 55.3606C18.506 55.3606 8.58656 51.2896 1.09443 44.5238C0.501936 43.9886 1.03709 43.2624 1.74425 43.6828C9.84799 48.3845 19.8439 51.2323 30.1838 51.2323C37.1599 51.2323 44.824 49.7798 51.8766 46.7982C52.9278 46.3204 53.8261 47.4862 52.794 48.2507ZM55.4124 45.2692C54.6097 44.2371 50.0991 44.7723 48.0541 45.0207C47.4425 45.0972 47.3469 44.562 47.9012 44.1606C51.4943 41.6378 57.4001 42.3641 58.0882 43.205C58.7762 44.0651 57.897 49.9709 54.5332 52.7995C54.0172 53.2391 53.5203 53.0098 53.7496 52.4364C54.5141 50.5443 56.2151 46.2821 55.4124 45.2692Z" fill="#FF9900"/>
<path d="M71.892 34.1331C71.0141 34.1331 70.2203 34.0208 69.5109 33.7962V32.9923C69.9345 33.1199 70.3352 33.2118 70.7129 33.268C71.0906 33.319 71.4913 33.3445 71.915 33.3445C72.7265 33.3445 73.3186 33.2144 73.6912 32.954C74.0689 32.6937 74.2578 32.3135 74.2578 31.8132C74.2578 31.3998 74.1455 31.0833 73.9209 30.8639C73.6963 30.6444 73.3059 30.481 72.7495 30.3738L71.5398 30.1442C70.7844 29.9961 70.2331 29.7384 69.886 29.3709C69.544 29.0034 69.373 28.5185 69.373 27.9162C69.373 27.4517 69.4904 27.0459 69.7252 26.6988C69.96 26.3466 70.3224 26.071 70.8124 25.8719C71.3076 25.6729 71.9252 25.5733 72.6653 25.5733C73.3952 25.5733 74.0791 25.6626 74.7172 25.8413V26.6376C74.3497 26.5355 74.0077 26.464 73.6912 26.4232C73.3748 26.3772 73.0379 26.3543 72.6806 26.3543C71.8384 26.3543 71.2284 26.4921 70.8507 26.7677C70.4781 27.0433 70.2918 27.4185 70.2918 27.8932C70.2918 28.2709 70.399 28.5797 70.6134 28.8196C70.8329 29.0544 71.208 29.2228 71.7389 29.3249L72.9486 29.5546C73.7295 29.7077 74.2961 29.9604 74.6483 30.3126C75.0005 30.6597 75.1766 31.1395 75.1766 31.752C75.1766 32.4972 74.8984 33.0816 74.342 33.5053C73.7857 33.9238 72.969 34.1331 71.892 34.1331Z" fill="white"/>
<path d="M80.3951 33.2986C80.7013 33.2986 81.0816 33.2501 81.5359 33.1531V33.98C81.1122 34.077 80.6758 34.1255 80.2266 34.1255C79.3334 34.1255 78.6494 33.9009 78.1747 33.4517C77.7051 32.9974 77.4704 32.2981 77.4704 31.3539V26.4921H75.7783V25.6958H77.4704L77.6158 22.6562H78.4044V25.6958H81.3827V26.4921H78.4044V31.2007C78.4044 31.946 78.5678 32.4819 78.8944 32.8086C79.2262 33.1352 79.7264 33.2986 80.3951 33.2986Z" fill="white"/>
<path d="M85.4739 25.5733C86.1834 25.5733 86.7678 25.6652 87.2272 25.8489C87.6917 26.0276 88.0439 26.3287 88.2838 26.7524C88.5236 27.1709 88.6436 27.7401 88.6436 28.4598V33.9876H87.8473L87.7784 33.0153H87.7019C87.4109 33.3573 87.0307 33.6278 86.5611 33.8269C86.0966 34.0208 85.6015 34.1178 85.0757 34.1178C84.5398 34.1178 84.0779 34.0285 83.6899 33.8498C83.302 33.6712 83.0034 33.416 82.7941 33.0842C82.59 32.7473 82.4879 32.3492 82.4879 31.8898C82.4879 31.1803 82.7278 30.6316 83.2076 30.2437C83.6874 29.8507 84.4556 29.598 85.5122 29.4857L87.7248 29.2331V28.4368C87.7248 27.9008 87.6381 27.4823 87.4645 27.1812C87.291 26.88 87.0332 26.6707 86.6912 26.5533C86.3544 26.4308 85.9179 26.3696 85.382 26.3696C85.0145 26.3696 84.624 26.4028 84.2106 26.4691C83.7971 26.5304 83.3939 26.6299 83.0009 26.7677V25.9561C83.348 25.8336 83.741 25.7392 84.1799 25.6729C84.624 25.6065 85.0553 25.5733 85.4739 25.5733ZM85.2518 33.3522C85.7163 33.3522 86.1604 33.2603 86.584 33.0765C87.0128 32.8877 87.3931 32.6044 87.7248 32.2267V29.9298L85.5581 30.1748C84.8129 30.2616 84.2744 30.4377 83.9426 30.7031C83.6159 30.9634 83.4526 31.3334 83.4526 31.8132C83.4526 32.3084 83.6032 32.6886 83.9043 32.954C84.2055 33.2195 84.6546 33.3522 85.2518 33.3522Z" fill="white"/>
<path d="M91.1646 25.6958H91.9532L92.0297 26.8136H92.1063C92.4177 26.441 92.8132 26.1501 93.293 25.9408C93.7728 25.7264 94.2628 25.6193 94.7631 25.6193C95.0132 25.6193 95.2684 25.6422 95.5287 25.6882V26.5763C95.3041 26.5355 95.0387 26.515 94.7324 26.515C94.2679 26.515 93.7907 26.6222 93.3007 26.8366C92.8107 27.0459 92.41 27.3496 92.0986 27.7477V33.9876H91.1646V25.6958Z" fill="white"/>
<path d="M100.583 33.2986C100.889 33.2986 101.269 33.2501 101.724 33.1531V33.98C101.3 34.077 100.863 34.1255 100.414 34.1255C99.521 34.1255 98.8371 33.9009 98.3624 33.4517C97.8928 32.9974 97.658 32.2981 97.658 31.3539V26.4921H95.9659V25.6958H97.658L97.8035 22.6562H98.5921V25.6958H101.57V26.4921H98.5921V31.2007C98.5921 31.946 98.7554 32.4819 99.0821 32.8086C99.4138 33.1352 99.9141 33.2986 100.583 33.2986Z" fill="white"/>
<path d="M105.822 34.1255C104.949 34.1255 104.265 33.8907 103.77 33.4211C103.275 32.9464 103.028 32.1935 103.028 31.1625V25.6958H103.962V31.1165C103.962 31.8822 104.138 32.4334 104.49 32.7703C104.847 33.1072 105.348 33.2756 105.991 33.2756C106.471 33.2756 106.948 33.1761 107.422 32.977C107.897 32.7728 108.306 32.4717 108.647 32.0736V25.6958H109.582V33.9876H108.785L108.716 33.0459H108.647C108.27 33.3981 107.838 33.6661 107.354 33.8498C106.869 34.0336 106.358 34.1255 105.822 34.1255Z" fill="white"/>
<path d="M112.22 25.6958H113.023L113.1 26.6682H113.161C113.452 26.3262 113.812 26.0582 114.241 25.8643C114.675 25.6703 115.152 25.5733 115.673 25.5733C116.346 25.5733 116.941 25.7137 117.456 25.9944C117.972 26.27 118.378 26.7141 118.674 27.3266C118.975 27.9391 119.126 28.7252 119.126 29.6848C119.126 32.6452 117.681 34.1255 114.792 34.1255C114.322 34.1255 113.776 34.0795 113.154 33.9876V37.3564H112.22V25.6958ZM114.823 33.3292C115.951 33.3292 116.788 33.0434 117.334 32.4717C117.885 31.9 118.161 31.0017 118.161 29.7767C118.161 28.5618 117.926 27.6967 117.456 27.1812C116.987 26.6605 116.334 26.4002 115.496 26.4002C115.037 26.4002 114.603 26.4946 114.195 26.6835C113.792 26.8723 113.445 27.1658 113.154 27.564V33.1378C113.378 33.199 113.639 33.2475 113.935 33.2833C114.231 33.3139 114.527 33.3292 114.823 33.3292Z" fill="white"/>
<path d="M69.8554 40.5974H70.6593L70.7359 41.5697H70.7971C71.0881 41.2277 71.4479 40.9598 71.8767 40.7658C72.3105 40.5718 72.7878 40.4749 73.3084 40.4749C73.9822 40.4749 74.5768 40.6152 75.0923 40.896C75.6079 41.1716 76.0137 41.6157 76.3097 42.2282C76.6108 42.8407 76.7614 43.6267 76.7614 44.5863C76.7614 47.5468 75.3169 49.027 72.4279 49.027C71.9583 49.027 71.4122 48.9811 70.7895 48.8892V52.258H69.8554V40.5974ZM72.4586 48.2307C73.5866 48.2307 74.4237 47.9449 74.9698 47.3732C75.5211 46.8016 75.7967 45.9032 75.7967 44.6782C75.7967 43.4634 75.5619 42.5982 75.0923 42.0827C74.6228 41.5621 73.9694 41.3017 73.1323 41.3017C72.6729 41.3017 72.2391 41.3962 71.8307 41.585C71.4275 41.7739 71.0804 42.0674 70.7895 42.4655V48.0393C71.0141 48.1006 71.2744 48.1491 71.5704 48.1848C71.8665 48.2154 72.1625 48.2307 72.4586 48.2307Z" fill="white"/>
<path d="M78.9174 40.5974H79.706L79.7826 41.7152H79.8591C80.1705 41.3426 80.5661 41.0516 81.0459 40.8424C81.5257 40.628 82.0157 40.5208 82.5159 40.5208C82.766 40.5208 83.0212 40.5438 83.2815 40.5897V41.4778C83.0569 41.437 82.7915 41.4166 82.4853 41.4166C82.0208 41.4166 81.5435 41.5238 81.0535 41.7382C80.5635 41.9474 80.1628 42.2511 79.8515 42.6493V48.8892H78.9174V40.5974Z" fill="white"/>
<path d="M87.5818 49.0347C86.4486 49.0347 85.563 48.685 84.925 47.9857C84.2921 47.2814 83.9756 46.2018 83.9756 44.7471C83.9756 43.3077 84.2946 42.2358 84.9327 41.5314C85.5707 40.827 86.4537 40.4749 87.5818 40.4749C88.72 40.4749 89.6056 40.8245 90.2385 41.5238C90.8714 42.218 91.1879 43.2924 91.1879 44.7471C91.1879 46.1865 90.8663 47.2609 90.2232 47.9704C89.5852 48.6799 88.7047 49.0347 87.5818 49.0347ZM87.5818 48.2384C88.4342 48.2384 89.0875 47.9653 89.5418 47.4192C90.0012 46.873 90.2309 45.9874 90.2309 44.7624C90.2309 43.5221 90.0012 42.6288 89.5418 42.0827C89.0875 41.5365 88.4342 41.2635 87.5818 41.2635C86.7294 41.2635 86.0735 41.534 85.6141 42.075C85.1598 42.6161 84.9327 43.5017 84.9327 44.7318C84.9327 45.9721 85.1598 46.8679 85.6141 47.4192C86.0735 47.9653 86.7294 48.2384 87.5818 48.2384Z" fill="white"/>
<path d="M95.9886 52.4111C95.5853 52.4111 95.154 52.3754 94.6946 52.3039C94.2352 52.2325 93.8167 52.1329 93.439 52.0053V51.1861C94.3169 51.4668 95.154 51.6072 95.9503 51.6072C96.6291 51.6072 97.1804 51.5128 97.604 51.3239C98.0328 51.1402 98.3518 50.839 98.5611 50.4205C98.7704 50.007 98.875 49.4506 98.875 48.7514V47.9628H98.8137C98.5126 48.2894 98.1451 48.5472 97.7112 48.7361C97.2774 48.9198 96.795 49.0117 96.2642 49.0117C95.6159 49.0117 95.0392 48.8713 94.5338 48.5906C94.0336 48.3099 93.6355 47.8658 93.3395 47.2584C93.0485 46.6459 92.903 45.8624 92.903 44.9079C92.903 43.4277 93.2629 42.32 93.9826 41.585C94.7023 40.8449 95.7716 40.4749 97.1906 40.4749C98.1094 40.4749 98.9822 40.5999 99.8091 40.85V48.6212C99.8091 49.5145 99.6662 50.2393 99.3803 50.7956C99.0996 51.3571 98.6785 51.7654 98.117 52.0206C97.5555 52.2809 96.8461 52.4111 95.9886 52.4111ZM96.4939 48.1848C96.9533 48.1848 97.3897 48.0955 97.8031 47.9168C98.2217 47.7331 98.5789 47.4574 98.875 47.0899V41.4778C98.3595 41.34 97.7699 41.2711 97.1064 41.2711C96.0243 41.2711 95.2127 41.557 94.6717 42.1286C94.1306 42.7003 93.8601 43.5961 93.8601 44.816C93.8601 46.0257 94.0923 46.8909 94.5568 47.4115C95.0264 47.927 95.6721 48.1848 96.4939 48.1848Z" fill="white"/>
<path d="M102.44 40.5974H103.228L103.305 41.7152H103.381C103.693 41.3426 104.088 41.0516 104.568 40.8424C105.048 40.628 105.538 40.5208 106.038 40.5208C106.288 40.5208 106.544 40.5438 106.804 40.5897V41.4778C106.579 41.437 106.314 41.4166 106.008 41.4166C105.543 41.4166 105.066 41.5238 104.576 41.7382C104.086 41.9474 103.685 42.2511 103.374 42.6493V48.8892H102.44V40.5974Z" fill="white"/>
<path d="M110.462 40.4749C111.171 40.4749 111.756 40.5667 112.215 40.7505C112.679 40.9291 113.032 41.2303 113.272 41.6539C113.511 42.0725 113.631 42.6416 113.631 43.3613V48.8892H112.835L112.766 47.9168H112.69C112.399 48.2588 112.018 48.5293 111.549 48.7284C111.084 48.9224 110.589 49.0193 110.064 49.0193C109.528 49.0193 109.066 48.93 108.678 48.7514C108.29 48.5727 107.991 48.3175 107.782 47.9857C107.578 47.6489 107.476 47.2507 107.476 46.7913C107.476 46.0819 107.716 45.5332 108.195 45.1452C108.675 44.7522 109.443 44.4995 110.5 44.3873L112.713 44.1346V43.3383C112.713 42.8024 112.626 42.3838 112.452 42.0827C112.279 41.7815 112.021 41.5723 111.679 41.4549C111.342 41.3324 110.906 41.2711 110.37 41.2711C110.002 41.2711 109.612 41.3043 109.198 41.3706C108.785 41.4319 108.382 41.5314 107.989 41.6692V40.8577C108.336 40.7352 108.729 40.6407 109.168 40.5744C109.612 40.508 110.043 40.4749 110.462 40.4749ZM110.24 48.2537C110.704 48.2537 111.148 48.1618 111.572 47.9781C112.001 47.7892 112.381 47.5059 112.713 47.1282V44.8313L110.546 45.0763C109.801 45.1631 109.262 45.3392 108.93 45.6046C108.604 45.8649 108.44 46.235 108.44 46.7148C108.44 47.2099 108.591 47.5902 108.892 47.8556C109.193 48.121 109.642 48.2537 110.24 48.2537Z" fill="white"/>
<path d="M124.528 40.4749C125.33 40.4749 125.958 40.7122 126.412 41.1869C126.871 41.6616 127.101 42.4145 127.101 43.4455V48.8892H126.167V43.4838C126.167 42.7182 126.006 42.1669 125.685 41.83C125.368 41.4932 124.924 41.3247 124.352 41.3247C123.939 41.3247 123.525 41.4191 123.112 41.608C122.699 41.7969 122.341 42.0929 122.04 42.4961C122.091 42.7564 122.117 43.0653 122.117 43.4226V48.8892H121.19V43.4838C121.19 42.7182 121.035 42.1669 120.723 41.83C120.417 41.4932 119.983 41.3247 119.422 41.3247C118.993 41.3247 118.572 41.4268 118.158 41.631C117.745 41.8351 117.388 42.1439 117.086 42.5574V48.8892H116.152V40.5974H116.949L117.018 41.5774H117.094C117.431 41.215 117.816 40.9419 118.25 40.7581C118.684 40.5693 119.146 40.4749 119.636 40.4749C120.687 40.4749 121.407 40.8857 121.795 41.7075C122.193 41.2788 122.63 40.9674 123.104 40.7735C123.579 40.5744 124.054 40.4749 124.528 40.4749Z" fill="white"/>
<path d="M131.662 49.0347C130.784 49.0347 129.991 48.9224 129.281 48.6978V47.8939C129.705 48.0215 130.106 48.1133 130.483 48.1695C130.861 48.2205 131.262 48.2461 131.685 48.2461C132.497 48.2461 133.089 48.1159 133.462 47.8556C133.839 47.5953 134.028 47.215 134.028 46.7148C134.028 46.3013 133.916 45.9849 133.691 45.7654C133.467 45.5459 133.076 45.3826 132.52 45.2754L131.31 45.0457C130.555 44.8977 130.003 44.6399 129.656 44.2724C129.314 43.9049 129.143 43.42 129.143 42.8177C129.143 42.3532 129.261 41.9474 129.496 41.6003C129.73 41.2481 130.093 40.9725 130.583 40.7735C131.078 40.5744 131.696 40.4749 132.436 40.4749C133.166 40.4749 133.85 40.5642 134.488 40.7428V41.5391C134.12 41.437 133.778 41.3655 133.462 41.3247C133.145 41.2788 132.808 41.2558 132.451 41.2558C131.609 41.2558 130.999 41.3936 130.621 41.6692C130.248 41.9449 130.062 42.32 130.062 42.7947C130.062 43.1724 130.169 43.4812 130.384 43.7211C130.603 43.9559 130.978 44.1244 131.509 44.2265L132.719 44.4562C133.5 44.6093 134.066 44.8619 134.419 45.2141C134.771 45.5612 134.947 46.041 134.947 46.6535C134.947 47.3987 134.669 47.9832 134.112 48.4068C133.556 48.8254 132.739 49.0347 131.662 49.0347Z" fill="white"/>
</svg>
