<svg width="602" height="533" viewBox="0 0 602 533" fill="none" xmlns="http://www.w3.org/2000/svg">
<g id="1a">
<g id="Group_1948758764">
<path id="1" d="M461.521 266.5C461.521 344.628 389.654 407.963 301 407.963C212.346 407.963 140.479 344.628 140.479 266.5C140.479 188.372 212.346 125.036 301 125.036C389.654 125.036 461.521 188.372 461.521 266.5Z" stroke="#626262"><animate attributeName="d" dur="6000ms" repeatCount="indefinite" values="M461.521 266.5C461.521 344.628 389.654 407.963 301 407.963C212.346 407.963 140.479 344.628 140.479 266.5C140.479 188.372 212.346 125.036 301 125.036C389.654 125.036 461.521 188.372 461.521 266.5Z;M461.521 266.5C461.521 344.628 389.654 407.963 301 407.963C212.346 407.963 140.479 344.628 140.479 266.5C140.479 188.372 212.346 125.036 301 125.036C389.654 125.036 461.521 188.372 461.521 266.5Z" calcMode="spline" keyTimes="0; 1" keySplines="0 0 1 1"></animate></path>
<path id="2" d="M461.521 266.5C461.521 344.628 389.654 407.963 301 407.963C212.346 407.963 140.479 344.628 140.479 266.5C140.479 188.372 212.346 125.036 301 125.036C389.654 125.036 461.521 188.372 461.521 266.5Z" stroke="#626262"><animate attributeName="d" dur="6000ms" repeatCount="indefinite" values="M461.521 266.5C461.521 344.628 389.654 407.963 301 407.963C212.346 407.963 140.479 344.628 140.479 266.5C140.479 188.372 212.346 125.036 301 125.036C389.654 125.036 461.521 188.372 461.521 266.5Z;M484 266.5C484 355.694 402.068 428 301 428C199.932 428 118 355.694 118 266.5C118 177.306 199.932 105 301 105C402.068 105 484 177.306 484 266.5Z" calcMode="spline" keyTimes="0; 1" keySplines="0 0 1 1"></animate></path>
<path id="3" d="M483.762 266.95C483.762 356.275 401.937 428.687 301 428.687C200.063 428.687 118.238 356.275 118.238 266.95C118.238 177.625 200.063 105.213 301 105.213C401.937 105.213 483.762 177.625 483.762 266.95Z" stroke="#626262"><animate attributeName="d" dur="6000ms" repeatCount="indefinite" values="M483.762 266.95C483.762 356.275 401.937 428.687 301 428.687C200.063 428.687 118.238 356.275 118.238 266.95C118.238 177.625 200.063 105.213 301 105.213C401.937 105.213 483.762 177.625 483.762 266.95Z;M507 267C507 367.516 414.771 449 301 449C187.229 449 95 367.516 95 267C95 166.484 187.229 85 301 85C414.771 85 507 166.484 507 267Z" calcMode="spline" keyTimes="0; 1" keySplines="0 0 1 1"></animate></path>
<path id="5" d="M506.003 266.5C506.003 366.524 414.22 447.609 301 447.609C187.78 447.609 95.9967 366.524 95.9967 266.5C95.9967 166.476 187.78 85.3906 301 85.3906C414.22 85.3906 506.003 166.476 506.003 266.5Z" stroke="#626262"><animate attributeName="d" dur="6000ms" repeatCount="indefinite" values="M506.003 266.5C506.003 366.524 414.22 447.609 301 447.609C187.78 447.609 95.9967 366.524 95.9967 266.5C95.9967 166.476 187.78 85.3906 301 85.3906C414.22 85.3906 506.003 166.476 506.003 266.5Z;M528 266.5C528 377.233 426.369 467 301 467C175.631 467 74 377.233 74 266.5C74 155.767 175.631 66 301 66C426.369 66 528 155.767 528 266.5Z" calcMode="spline" keyTimes="0; 1" keySplines="0 0 1 1"></animate></path>
<path id="6" d="M528.244 266.5C528.244 376.974 426.504 466.531 301 466.531C175.496 466.531 73.7558 376.974 73.7558 266.5C73.7558 156.026 175.496 66.4688 301 66.4688C426.504 66.4688 528.244 156.026 528.244 266.5Z" stroke="#626262"><animate attributeName="d" dur="6000ms" repeatCount="indefinite" values="M528.244 266.5C528.244 376.974 426.504 466.531 301 466.531C175.496 466.531 73.7558 376.974 73.7558 266.5C73.7558 156.026 175.496 66.4688 301 66.4688C426.504 66.4688 528.244 156.026 528.244 266.5Z;M550 266.5C550 387.727 438.519 486 301 486C163.481 486 52 387.727 52 266.5C52 145.273 163.481 47 301 47C438.519 47 550 145.273 550 266.5Z" calcMode="spline" keyTimes="0; 1" keySplines="0 0 1 1"></animate></path>
<path id="7" d="M549.518 266.5C549.518 387.922 438.253 486.354 301 486.354C163.747 486.354 52.4818 387.922 52.4818 266.5C52.4818 145.078 163.747 46.6458 301 46.6458C438.253 46.6458 549.518 145.078 549.518 266.5Z" stroke="#626262"><animate attributeName="d" dur="6000ms" repeatCount="indefinite" values="M549.518 266.5C549.518 387.922 438.253 486.354 301 486.354C163.747 486.354 52.4818 387.922 52.4818 266.5C52.4818 145.078 163.747 46.6458 301 46.6458C438.253 46.6458 549.518 145.078 549.518 266.5Z;M572 266.5C572 398.772 450.669 506 301 506C151.331 506 30 398.772 30 266.5C30 134.228 151.331 27 301 27C450.669 27 572 134.228 572 266.5Z" calcMode="spline" keyTimes="0; 1" keySplines="0 0 1 1"></animate></path>
<path id="8" d="M572.726 266.5C572.726 398.87 451.07 506.177 301 506.177C150.93 506.177 29.2739 398.87 29.2739 266.5C29.2739 134.13 150.93 26.823 301 26.823C451.07 26.823 572.726 134.13 572.726 266.5Z" stroke="#626262"><animate attributeName="d" dur="6000ms" repeatCount="indefinite" values="M572.726 266.5C572.726 398.87 451.07 506.177 301 506.177C150.93 506.177 29.2739 398.87 29.2739 266.5C29.2739 134.13 150.93 26.823 301 26.823C451.07 26.823 572.726 134.13 572.726 266.5Z;M594 266.5C594 409.818 462.819 526 301 526C139.181 526 8 409.818 8 266.5C8 123.182 139.181 7 301 7C462.819 7 594 123.182 594 266.5Z" calcMode="spline" keyTimes="0; 1" keySplines="0 0 1 1"></animate></path>
<path id="9" d="M594 266.5C594 409.818 462.819 526 301 526C139.181 526 8 409.818 8 266.5C8 123.182 139.181 7 301 7C462.819 7 594 123.182 594 266.5Z" stroke="#626262"><animate attributeName="d" dur="6000ms" repeatCount="indefinite" values="M594 266.5C594 409.818 462.819 526 301 526C139.181 526 8 409.818 8 266.5C8 123.182 139.181 7 301 7C462.819 7 594 123.182 594 266.5Z;M594 266.5C594 409.818 462.819 526 301 526C139.181 526 8 409.818 8 266.5C8 123.182 139.181 7 301 7C462.819 7 594 123.182 594 266.5Z" calcMode="spline" keyTimes="0; 1" keySplines="0 0 1 1"></animate></path>
</g>
</g>
</svg>