<svg width="1668" height="772" viewBox="0 0 1668 772" fill="none" xmlns="http://www.w3.org/2000/svg">
<g id="1a">
<path id="1" d="M1254 386C1254 493.244 1065.96 580.182 834 580.182C602.04 580.182 414 493.244 414 386C414 278.756 602.04 191.818 834 191.818C1065.96 191.818 1254 278.756 1254 386Z" stroke="#626262"><animate attributeName="d" dur="6000ms" repeatCount="indefinite" values="M1254 386C1254 493.244 1065.96 580.182 834 580.182C602.04 580.182 414 493.244 414 386C414 278.756 602.04 191.818 834 191.818C1065.96 191.818 1254 278.756 1254 386Z;M1254 386C1254 493.244 1065.96 580.182 834 580.182C602.04 580.182 414 493.244 414 386C414 278.756 602.04 191.818 834 191.818C1065.96 191.818 1254 278.756 1254 386Z" calcMode="spline" keyTimes="0; 1" keySplines="0 0 1 1"></animate></path>
<path id="2" d="M1254 386C1254 493.244 1065.96 580.182 834 580.182C602.04 580.182 414 493.244 414 386C414 278.756 602.04 191.818 834 191.818C1065.96 191.818 1254 278.756 1254 386Z" stroke="#626262"><animate attributeName="d" dur="6000ms" repeatCount="indefinite" values="M1254 386C1254 493.244 1065.96 580.182 834 580.182C602.04 580.182 414 493.244 414 386C414 278.756 602.04 191.818 834 191.818C1065.96 191.818 1254 278.756 1254 386Z;M1313 386C1313 508.055 1098.54 607 834 607C569.456 607 355 508.055 355 386C355 263.945 569.456 165 834 165C1098.54 165 1313 263.945 1313 386Z" calcMode="spline" keyTimes="0; 1" keySplines="0 0 1 1"></animate></path>
<path id="3" d="M1313 386.308C1313 508.617 1098.54 607.768 834 607.768C569.456 607.768 355 508.617 355 386.308C355 263.999 569.456 164.849 834 164.849C1098.54 164.849 1313 263.999 1313 386.308Z" stroke="#626262"><animate attributeName="d" dur="6000ms" repeatCount="indefinite" values="M1313 386.308C1313 508.617 1098.54 607.768 834 607.768C569.456 607.768 355 508.617 355 386.308C355 263.999 569.456 164.849 834 164.849C1098.54 164.849 1313 263.999 1313 386.308Z;M1371 386.5C1371 523.743 1130.58 635 834 635C537.423 635 297 523.743 297 386.5C297 249.257 537.423 138 834 138C1130.58 138 1371 249.257 1371 386.5Z" calcMode="spline" keyTimes="0; 1" keySplines="0 0 1 1"></animate></path>
<path id="5" d="M1371 386C1371 523.034 1130.58 634.121 834 634.121C537.423 634.121 297 523.034 297 386C297 248.966 537.423 137.879 834 137.879C1130.58 137.879 1371 248.966 1371 386Z" stroke="#626262"><animate attributeName="d" dur="6000ms" repeatCount="indefinite" values="M1371 386C1371 523.034 1130.58 634.121 834 634.121C537.423 634.121 297 523.034 297 386C297 248.966 537.423 137.879 834 137.879C1130.58 137.879 1371 248.966 1371 386Z;M1429 386C1429 537.878 1162.61 661 834 661C505.391 661 239 537.878 239 386C239 234.122 505.391 111 834 111C1162.61 111 1429 234.122 1429 386Z" calcMode="spline" keyTimes="0; 1" keySplines="0 0 1 1"></animate></path>
<path id="6" d="M1429 386C1429 537.929 1162.61 661.091 834 661.091C505.391 661.091 239 537.929 239 386C239 234.071 505.391 110.909 834 110.909C1162.61 110.909 1429 234.071 1429 386Z" stroke="#626262"><animate attributeName="d" dur="6000ms" repeatCount="indefinite" values="M1429 386C1429 537.929 1162.61 661.091 834 661.091C505.391 661.091 239 537.929 239 386C239 234.071 505.391 110.909 834 110.909C1162.61 110.909 1429 234.071 1429 386Z;M1487 386C1487 552.79 1194.64 688 834 688C473.358 688 181 552.79 181 386C181 219.21 473.358 84 834 84C1194.64 84 1487 219.21 1487 386Z" calcMode="spline" keyTimes="0; 1" keySplines="0 0 1 1"></animate></path>
<path id="7" d="M1487 386C1487 552.823 1194.64 688.061 834 688.061C473.358 688.061 181 552.823 181 386C181 219.177 473.358 83.9394 834 83.9394C1194.64 83.9394 1487 219.177 1487 386Z" stroke="#626262"><animate attributeName="d" dur="6000ms" repeatCount="indefinite" values="M1487 386C1487 552.823 1194.64 688.061 834 688.061C473.358 688.061 181 552.823 181 386C181 219.177 473.358 83.9394 834 83.9394C1194.64 83.9394 1487 219.177 1487 386Z;M1545 386C1545 567.702 1226.67 715 834 715C441.326 715 123 567.702 123 386C123 204.298 441.326 57 834 57C1226.67 57 1545 204.298 1545 386Z" calcMode="spline" keyTimes="0; 1" keySplines="0 0 1 1"></animate></path>
<path id="8" d="M1545 386C1545 567.718 1226.67 715.03 834 715.03C441.326 715.03 123 567.718 123 386C123 204.282 441.326 56.9697 834 56.9697C1226.67 56.9697 1545 204.282 1545 386Z" stroke="#626262"><animate attributeName="d" dur="6000ms" repeatCount="indefinite" values="M1545 386C1545 567.718 1226.67 715.03 834 715.03C441.326 715.03 123 567.718 123 386C123 204.282 441.326 56.9697 834 56.9697C1226.67 56.9697 1545 204.282 1545 386Z;M1603 386C1603 582.613 1258.71 742 834 742C409.293 742 65 582.613 65 386C65 189.387 409.293 30 834 30C1258.71 30 1603 189.387 1603 386Z" calcMode="spline" keyTimes="0; 1" keySplines="0 0 1 1"></animate></path>
<path id="9" d="M1603 386C1603 582.613 1258.71 742 834 742C409.293 742 65 582.613 65 386C65 189.387 409.293 30 834 30C1258.71 30 1603 189.387 1603 386Z" stroke="#626262"><animate attributeName="d" dur="6000ms" repeatCount="indefinite" values="M1603 386C1603 582.613 1258.71 742 834 742C409.293 742 65 582.613 65 386C65 189.387 409.293 30 834 30C1258.71 30 1603 189.387 1603 386Z;M1602 386C1602 582.613 1258.15 742 834 742C409.845 742 66 582.613 66 386C66 189.387 409.845 30 834 30C1258.15 30 1602 189.387 1602 386Z" calcMode="spline" keyTimes="0; 1" keySplines="0 0 1 1"></animate></path>
</g>
</svg>