<svg width="70" height="77" viewBox="0 0 70 77" fill="none" xmlns="http://www.w3.org/2000/svg">
<g clip-path="url(#clip0_1412_36785)">
<path d="M0.458984 15.5736C0.458984 10.8469 4.48226 7.01659 9.2837 7.01659C11.9328 7.01659 13.8202 8.04342 15.2441 9.37994L13.5553 11.0261C12.5454 10.0808 11.1712 9.34735 9.2837 9.34735C5.79024 9.34735 3.05838 12.1182 3.05838 15.5573C3.05838 18.9964 5.79024 21.7672 9.2837 21.7672C11.552 21.7672 12.8434 20.8708 13.6712 20.0558C14.35 19.3875 14.7971 18.4259 14.9626 17.122H9.2837V14.7912H17.2806C17.3634 15.215 17.413 15.704 17.413 16.2581C17.413 18.0184 16.9329 20.1862 15.36 21.7183C13.8202 23.283 11.8665 24.1143 9.2837 24.1143C4.48226 24.1143 0.458984 20.284 0.458984 15.5736Z" fill="#4285F4"/>
<path d="M23.8549 13.1137C20.7588 13.1137 18.2422 15.4282 18.2422 18.6228C18.2422 21.8011 20.7588 24.1318 23.8549 24.1318C26.951 24.1318 29.4676 21.8011 29.4676 18.6228C29.4676 15.4282 26.951 13.1137 23.8549 13.1137ZM23.8549 21.9478C22.1661 21.9478 20.6926 20.5786 20.6926 18.6065C20.6926 16.618 22.1496 15.2652 23.8549 15.2652C25.5437 15.2652 27.0172 16.618 27.0172 18.6065C27.0172 20.5786 25.5437 21.9478 23.8549 21.9478Z" fill="#EA4335"/>
<path d="M36.1069 13.1137C33.0108 13.1137 30.4941 15.4282 30.4941 18.6228C30.4941 21.8011 33.0108 24.1318 36.1069 24.1318C39.203 24.1318 41.7196 21.8011 41.7196 18.6228C41.7196 15.4282 39.203 13.1137 36.1069 13.1137ZM36.1069 21.9478C34.4181 21.9478 32.9445 20.5786 32.9445 18.6065C32.9445 16.618 34.4015 15.2652 36.1069 15.2652C37.8122 15.2652 39.2692 16.618 39.2692 18.6065C39.2692 20.5786 37.7956 21.9478 36.1069 21.9478Z" fill="#FBBC05"/>
<path d="M51.1403 13.4386V14.335H51.0575C50.5112 13.6831 49.4515 13.0963 48.1105 13.0963C45.3124 13.0963 42.7461 15.5086 42.7461 18.6217C42.7461 21.7022 45.3124 24.1144 48.1105 24.1144C49.4515 24.1144 50.5112 23.5277 51.0575 22.8594H51.1403V23.6581C51.1403 25.7606 49.9979 26.8853 48.1601 26.8853C46.6535 26.8853 45.7263 25.8258 45.3455 24.9294L43.2097 25.8095C43.8223 27.2764 45.4614 29.0693 48.1767 29.0693C51.0575 29.0693 53.4914 27.4068 53.4914 23.3321V13.4386H51.1403ZM48.3257 21.9467C46.6369 21.9467 45.213 20.545 45.213 18.6217C45.213 16.6821 46.6369 15.2641 48.3257 15.2641C49.9979 15.2641 51.3059 16.6821 51.3059 18.6217C51.3225 20.5612 49.9979 21.9467 48.3257 21.9467Z" fill="#4285F4"/>
<path d="M57.6301 23.79H55.1797V7.60511H57.6301V23.79Z" fill="#34A853"/>
<path d="M64.3688 21.9478C63.1104 21.9478 62.2329 21.3773 61.6535 20.2853L69.1371 17.2374L68.8887 16.618C68.4251 15.3793 67.0013 13.1137 64.1038 13.1137C61.223 13.1137 58.8223 15.3467 58.8223 18.6228C58.8223 21.7033 61.1899 24.1318 64.3688 24.1318C66.935 24.1318 68.4086 22.5834 69.0377 21.687L67.1337 20.432C66.488 21.3447 65.6271 21.9478 64.3688 21.9478ZM64.1866 15.2326C65.1635 15.2326 65.9913 15.7052 66.2562 16.4061L61.2561 18.4435C61.1899 16.3246 62.9283 15.2326 64.1866 15.2326Z" fill="#EA4335"/>
<path d="M6.57256 31.415C7.1916 31.415 7.6992 31.5186 8.09538 31.7258L7.63111 33.2067C7.33397 33.0604 6.9997 32.9873 6.62828 32.9873C6.20734 32.9873 5.86068 33.1336 5.5883 33.4261C5.32831 33.7064 5.19831 34.0842 5.19831 34.5596V35.693H7.5754V37.2287H5.19831V44.6513H3.48978V37.2287H1.78125V35.693H3.48978V34.395C3.48978 33.5053 3.77454 32.7862 4.34405 32.2377C4.92594 31.6893 5.66878 31.415 6.57256 31.415Z" fill="white"/>
<path d="M8.13086 40.171C8.13086 38.7938 8.57037 37.6542 9.4494 36.7523C10.3408 35.8504 11.4613 35.3994 12.8107 35.3994C14.1602 35.3994 15.2745 35.8504 16.1535 36.7523C17.0449 37.6542 17.4906 38.7938 17.4906 40.171C17.4906 41.5605 17.0449 42.7001 16.1535 43.5898C15.2745 44.4917 14.1602 44.9427 12.8107 44.9427C11.4613 44.9427 10.3408 44.4917 9.4494 43.5898C8.57037 42.6879 8.13086 41.5483 8.13086 40.171ZM9.83939 40.171C9.83939 41.1339 10.1241 41.9139 10.6937 42.5111C11.2632 43.1084 11.9689 43.407 12.8107 43.407C13.6526 43.407 14.3583 43.1084 14.9278 42.5111C15.4973 41.9139 15.7821 41.1339 15.7821 40.171C15.7821 39.2204 15.4973 38.4464 14.9278 37.8492C14.3459 37.2398 13.6402 36.9351 12.8107 36.9351C11.9812 36.9351 11.2755 37.2398 10.6937 37.8492C10.1241 38.4464 9.83939 39.2204 9.83939 40.171Z" fill="white"/>
<path d="M20.5874 44.6526H18.8789V35.6944H20.5132V37.157H20.5874C20.7608 36.6817 21.1136 36.2794 21.646 35.9504C22.1907 35.6091 22.7231 35.4385 23.2431 35.4385C23.7383 35.4385 24.1593 35.5116 24.5059 35.6579L23.9859 37.285C23.7755 37.1996 23.4412 37.157 22.9831 37.157C22.3393 37.157 21.776 37.4129 21.2931 37.9248C20.8227 38.4367 20.5874 39.034 20.5874 39.7165V44.6526Z" fill="white"/>
<path d="M10.881 61.3564C10.881 62.5021 10.4539 63.4223 9.59964 64.117C8.73299 64.7995 7.68063 65.1408 6.44257 65.1408C5.34069 65.1408 4.36881 64.8239 3.52692 64.1901C2.68504 63.5564 2.10315 62.691 1.78125 61.5941L3.4155 60.9359C3.52692 61.326 3.68168 61.6794 3.87977 61.9963C4.07786 62.3132 4.3069 62.5874 4.5669 62.819C4.83927 63.0384 5.13641 63.2151 5.4583 63.3492C5.7802 63.471 6.12067 63.532 6.47971 63.532C7.25969 63.532 7.89729 63.337 8.39252 62.947C8.88775 62.5448 9.13536 62.0146 9.13536 61.3564C9.13536 60.808 8.93108 60.3387 8.52252 59.9487C8.13872 59.5709 7.42064 59.2052 6.36829 58.8518C5.30355 58.4739 4.64118 58.218 4.38119 58.0839C2.96979 57.377 2.2641 56.3349 2.2641 54.9577C2.2641 53.9948 2.65409 53.1721 3.43407 52.4896C4.22643 51.8071 5.19831 51.4658 6.34971 51.4658C7.36493 51.4658 8.24395 51.7218 8.98679 52.2337C9.72963 52.7334 10.2249 53.3611 10.4725 54.1167L8.87537 54.7749C8.7268 54.2874 8.42967 53.8851 7.98396 53.5683C7.55064 53.2392 7.01827 53.0746 6.38685 53.0746C5.7183 53.0746 5.15498 53.2575 4.69689 53.6231C4.23881 53.9644 4.00977 54.4092 4.00977 54.9577C4.00977 55.4087 4.18929 55.7987 4.54833 56.1277C4.94451 56.4568 5.80497 56.8468 7.1297 57.2978C8.47919 57.7488 9.43869 58.3033 10.0082 58.9615C10.5901 59.6074 10.881 60.4058 10.881 61.3564Z" fill="white"/>
<path d="M15.7713 64.9942C15.0284 64.9942 14.4094 64.7688 13.9142 64.3178C13.4313 63.8668 13.1837 63.2392 13.1713 62.4347V57.4255H11.5742V55.8898H13.1713V53.1475H14.8799V55.8898H17.1084V57.4255H14.8799V61.8863C14.8799 62.4835 14.9975 62.8918 15.2327 63.1112C15.4679 63.3184 15.7341 63.422 16.0313 63.422C16.1674 63.422 16.2974 63.4098 16.4212 63.3854C16.5574 63.3489 16.6812 63.3062 16.7927 63.2574L17.3312 64.7566C16.8855 64.915 16.3655 64.9942 15.7713 64.9942Z" fill="white"/>
<path d="M19.7974 62.1051C19.7974 62.5439 19.9832 62.9095 20.3546 63.202C20.7384 63.4945 21.1841 63.6408 21.6917 63.6408C22.4098 63.6408 23.0474 63.3787 23.6045 62.8547C24.174 62.3306 24.4588 61.7151 24.4588 61.0082C23.9264 60.5938 23.1836 60.3866 22.2302 60.3866C21.5369 60.3866 20.955 60.5511 20.4846 60.8802C20.0265 61.2093 19.7974 61.6176 19.7974 62.1051ZM22.0074 55.5967C23.2702 55.5967 24.2669 55.9318 24.9973 56.6022C25.7278 57.2603 26.093 58.1684 26.093 59.3262V64.8474H24.4588V63.6042H24.3845C23.6788 64.628 22.7379 65.1399 21.5617 65.1399C20.5589 65.1399 19.717 64.8474 19.036 64.2624C18.3675 63.6774 18.0332 62.9461 18.0332 62.0685C18.0332 61.1422 18.3861 60.4049 19.0917 59.8564C19.8098 59.3079 20.7631 59.0337 21.9517 59.0337C22.9669 59.0337 23.8026 59.2165 24.4588 59.5822V59.1982C24.4588 58.6132 24.2235 58.1196 23.7531 57.7174C23.2826 57.303 22.7317 57.0958 22.1003 57.0958C21.1469 57.0958 20.3917 57.4919 19.8346 58.2841L18.3303 57.3518C19.1598 56.1817 20.3855 55.5967 22.0074 55.5967Z" fill="white"/>
<path d="M38.6793 64.9942C37.9364 64.9942 37.3174 64.7688 36.8222 64.3178C36.3393 63.8668 36.0917 63.2392 36.0793 62.4347V57.4255H34.4822V55.8898H36.0793V53.1475H37.7879V55.8898H40.0164V57.4255H37.7879V61.8863C37.7879 62.4835 37.9055 62.8918 38.1407 63.1112C38.376 63.3184 38.6421 63.422 38.9393 63.422C39.0755 63.422 39.2055 63.4098 39.3293 63.3854C39.4654 63.3489 39.5893 63.3062 39.7007 63.2574L40.2392 64.7566C39.7935 64.915 39.2736 64.9942 38.6793 64.9942ZM28.0195 55.8898H29.6538V57.3523H29.7281C30.2357 56.2067 31.2818 55.6338 32.8666 55.6338L33.2194 55.6704V57.4255L32.458 57.3523C31.6656 57.3523 31.0095 57.5961 30.4895 58.0836C29.9819 58.559 29.7281 59.1684 29.7281 59.9118V64.848H28.0195V55.8898Z" fill="white"/>
<path d="M49.6438 64.8498H48.0095V63.6066H47.9353C47.6753 64.0454 47.2729 64.411 46.7281 64.7036C46.1958 64.9961 45.6386 65.1423 45.0568 65.1423C43.9425 65.1423 43.082 64.8315 42.4754 64.2099C41.8811 63.5762 41.584 62.6803 41.584 61.5225V55.8916H43.2925V61.4128C43.3297 62.8754 44.0787 63.6066 45.5396 63.6066C46.2205 63.6066 46.79 63.3385 47.2481 62.8022C47.7062 62.2538 47.9353 61.6017 47.9353 60.846V55.8916H49.6438V64.8498Z" fill="white"/>
<path d="M56.1973 63.6042C57.0145 63.6042 57.7016 63.2995 58.2587 62.6901C58.8158 62.0929 59.0944 61.319 59.0944 60.3683C59.0944 59.4298 58.8158 58.6559 58.2587 58.0465C57.7016 57.4371 57.0145 57.1324 56.1973 57.1324C55.3678 57.1324 54.6745 57.4371 54.1174 58.0465C53.5726 58.6559 53.3003 59.4298 53.3003 60.3683C53.3003 61.319 53.5726 62.099 54.1174 62.7084C54.6745 63.3056 55.3678 63.6042 56.1973 63.6042ZM56.4759 65.1399C55.8073 65.1399 55.1945 64.9998 54.6374 64.7194C54.0926 64.4391 53.6717 64.0674 53.3745 63.6042H53.3003L53.3745 64.8474V68.7963H51.666V55.8892H53.3003V57.1324H53.3745C53.6717 56.6692 54.0926 56.2975 54.6374 56.0172C55.1945 55.7368 55.8073 55.5967 56.4759 55.5967C57.6768 55.5967 58.692 56.0598 59.5215 56.9861C60.3758 57.9246 60.8029 59.052 60.8029 60.3683C60.8029 61.6968 60.3758 62.8242 59.5215 63.7505C58.692 64.6768 57.6768 65.1399 56.4759 65.1399Z" fill="white"/>
<path d="M69.2244 62.361C69.2244 63.1411 68.8778 63.7992 68.1844 64.3355C67.4911 64.8718 66.6183 65.1399 65.5659 65.1399C64.6498 65.1399 63.845 64.9083 63.1517 64.4452C62.4584 63.9699 61.9632 63.3483 61.666 62.5804L63.1888 61.9406C63.4117 62.4768 63.7336 62.8973 64.1545 63.202C64.5879 63.4945 65.0583 63.6408 65.5659 63.6408C66.1107 63.6408 66.5626 63.525 66.9216 63.2934C67.293 63.0619 67.4787 62.7876 67.4787 62.4707C67.4787 61.8979 67.033 61.4774 66.1416 61.2093L64.5817 60.8254C62.8112 60.3866 61.926 59.5456 61.926 58.3024C61.926 57.4858 62.2603 56.8338 62.9288 56.3462C63.6098 55.8465 64.4764 55.5967 65.5288 55.5967C66.3335 55.5967 67.0578 55.7856 67.7016 56.1634C68.3578 56.5413 68.8158 57.0471 69.0758 57.6808L67.553 58.3024C67.3797 57.9246 67.0949 57.6321 66.6988 57.4249C66.315 57.2055 65.8816 57.0958 65.3988 57.0958C64.9531 57.0958 64.5507 57.2055 64.1917 57.4249C63.845 57.6443 63.6717 57.9124 63.6717 58.2293C63.6717 58.7412 64.1607 59.1068 65.1388 59.3262L66.513 59.6736C68.3206 60.1124 69.2244 61.0082 69.2244 62.361Z" fill="white"/>
</g>
<defs>
<clipPath id="clip0_1412_36785">
<rect width="69" height="77" fill="white" transform="translate(0.109375)"/>
</clipPath>
</defs>
</svg>
