<svg xmlns="http://www.w3.org/2000/svg" width="55" height="30" viewBox="0 0 55 30" fill="none">
<path fill-rule="evenodd" clip-rule="evenodd" d="M47.6758 1C50.749 1 53.2403 3.49131 53.2403 6.56451V23.436C53.2403 26.5092 50.749 29.0005 47.6758 29.0005C44.6026 29.0005 42.1113 26.5092 42.1113 23.436V6.56451C42.1113 3.49131 44.6026 1 47.6758 1Z" stroke="white" stroke-width="2" stroke-linecap="round" stroke-linejoin="round"/>
<path fill-rule="evenodd" clip-rule="evenodd" d="M19.2542 1.04688C22.3274 1.04688 24.8187 3.53819 24.8187 6.61138V6.61138C24.8187 8.2698 25.4775 9.86029 26.6502 11.033L34.8697 19.2524C37.0427 21.4255 37.0427 24.9487 34.8697 27.1218C32.6966 29.2949 29.1733 29.2949 27.0003 27.1218L20.4349 20.5564C19.7828 19.9044 18.7257 19.9044 18.0736 20.5564L11.259 27.371C9.0859 29.5441 5.56265 29.5441 3.38957 27.371C1.2165 25.198 1.2165 21.6747 3.38957 19.5016L11.8582 11.033C13.0309 9.86029 13.6897 8.2698 13.6897 6.61138V6.61138C13.6897 3.53819 16.181 1.04688 19.2542 1.04688Z" stroke="white" stroke-width="2" stroke-linecap="round" stroke-linejoin="round"/>
</svg>