<svg xmlns="http://www.w3.org/2000/svg" width="123" height="77" viewBox="0 0 123 77" fill="none">
<path d="M18.9383 33.4961H16.1276V22.3453C16.1276 21.4334 16.184 20.3136 16.2937 18.9927H16.2472C16.0711 19.747 15.9183 20.2868 15.782 20.6154L10.6855 33.4961H8.73198L3.6255 20.7126C3.48264 20.3371 3.33313 19.7638 3.17366 18.996H3.12714C3.19027 19.6833 3.22349 20.8098 3.22349 22.3721V33.4961H0.605469V16.267H4.59563L9.08415 27.7397C9.42635 28.6214 9.64895 29.2785 9.75194 29.711H9.81175C10.1041 28.8058 10.3433 28.1319 10.5261 27.6927L15.0976 16.267H18.9449V33.4961H18.9383ZM23.3703 18.6105C22.9185 18.6105 22.5298 18.463 22.2108 18.1646C21.8885 17.8696 21.7291 17.4907 21.7291 17.0348C21.7291 16.5788 21.8885 16.1966 22.2108 15.8949C22.5331 15.5898 22.9185 15.4389 23.3703 15.4389C23.8222 15.4389 24.2341 15.5898 24.5597 15.8949C24.8853 16.2 25.0481 16.5788 25.0481 17.0348C25.0481 17.4673 24.8853 17.8394 24.5597 18.1478C24.2341 18.4563 23.8388 18.6105 23.3703 18.6105ZM24.7391 33.4961H21.9783V21.192H24.7391V33.4961ZM36.4638 32.9328C35.487 33.4994 34.3341 33.7844 32.9985 33.7844C31.1879 33.7844 29.7293 33.2145 28.6163 32.0712C27.5067 30.9313 26.9485 29.4495 26.9485 27.6324C26.9485 25.6074 27.5465 23.978 28.7393 22.7476C29.9353 21.5172 31.5301 20.9037 33.5301 20.9037C34.6398 20.9037 35.6232 21.0981 36.4704 21.4937V24.0887C35.6199 23.4483 34.7162 23.1265 33.756 23.1265C32.5899 23.1265 31.633 23.5254 30.8855 24.3233C30.1413 25.1213 29.7659 26.1639 29.7659 27.4513C29.7659 28.7387 30.118 29.7311 30.8191 30.4653C31.5201 31.2029 32.4636 31.5717 33.6464 31.5717C34.6398 31.5717 35.5767 31.2163 36.4571 30.5022V32.9295L36.4638 32.9328ZM45.6634 23.8506C45.3312 23.5858 44.8494 23.455 44.2215 23.455C43.4042 23.455 42.7198 23.8272 42.1749 24.5714C41.6267 25.3157 41.3543 26.3282 41.3543 27.6123V33.4994H38.5934V21.1954H41.3543V23.7299H41.4008C41.6699 22.865 42.0852 22.1911 42.6434 21.705C43.2015 21.2188 43.8295 20.9774 44.5205 20.9774C45.0222 20.9774 45.4009 21.0546 45.6634 21.2054V23.8473V23.8506ZM52.1985 33.7844C50.318 33.7844 48.8163 33.2111 47.6934 32.0612C46.5704 30.9112 46.0089 29.3891 46.0089 27.4882C46.0089 25.423 46.5937 23.807 47.7665 22.647C48.9359 21.4837 50.5141 20.9037 52.4975 20.9037C54.481 20.9037 55.8863 21.4669 56.9495 22.5967C58.0126 23.7266 58.5442 25.2922 58.5442 27.2938C58.5442 29.2953 57.9694 30.8274 56.8232 32.0075C55.677 33.1876 54.1354 33.7811 52.1985 33.7811M52.3281 23.1231C51.2483 23.1231 50.3944 23.502 49.7698 24.263C49.1419 25.024 48.8296 26.0734 48.8296 27.4111C48.8296 28.7488 49.1452 29.7143 49.7831 30.4553C50.4177 31.1962 51.2682 31.565 52.3314 31.565C53.3946 31.565 54.255 31.1995 54.8365 30.472C55.4212 29.7445 55.7102 28.7052 55.7102 27.3608C55.7102 26.0164 55.4179 24.9603 54.8365 24.2261C54.2517 23.4885 53.4178 23.1198 52.3314 23.1198M59.9861 33.1038V30.5223C61.0194 31.3135 62.1556 31.7125 63.4015 31.7125C65.0693 31.7125 65.9033 31.2163 65.9033 30.2239C65.9033 29.9423 65.8335 29.7043 65.6906 29.5098C65.5478 29.3154 65.3551 29.141 65.1125 28.9868C64.87 28.8326 64.5843 28.6985 64.2554 28.5778C63.9264 28.4571 63.5577 28.323 63.1557 28.1688C62.654 27.9676 62.2055 27.7564 61.8035 27.5318C61.4014 27.3072 61.0692 27.0524 60.8034 26.7674C60.5376 26.4824 60.3383 26.1606 60.2021 25.7985C60.0659 25.4398 59.9994 25.0173 59.9994 24.5379C59.9994 23.9445 60.139 23.4215 60.4147 22.9689C60.6938 22.5163 61.0659 22.1341 61.5343 21.8257C62.0028 21.5172 62.5344 21.2859 63.1291 21.1283C63.7238 20.9707 64.3384 20.8936 64.973 20.8936C66.0993 20.8936 67.1093 21.0646 67.9963 21.4099V23.8506C67.1392 23.2572 66.1558 22.9622 65.0428 22.9622C64.6939 22.9622 64.3783 22.9991 64.0959 23.0695C63.8135 23.1399 63.5743 23.2405 63.3749 23.3712C63.1756 23.4986 63.0228 23.6528 62.9098 23.8339C62.8002 24.0149 62.7437 24.2127 62.7437 24.4273C62.7437 24.6921 62.8002 24.9168 62.9098 25.1011C63.0194 25.2855 63.1856 25.4465 63.4048 25.5873C63.6241 25.7281 63.8866 25.8555 64.1889 25.9728C64.4946 26.0902 64.8467 26.2142 65.2421 26.3517C65.767 26.5662 66.2355 26.7875 66.6541 27.0121C67.0694 27.2368 67.4249 27.4916 67.7206 27.7765C68.013 28.0615 68.2389 28.3901 68.3984 28.7622C68.5578 29.1343 68.6376 29.5769 68.6376 30.0898C68.6376 30.7134 68.4947 31.2599 68.209 31.7226C67.9233 32.1886 67.5412 32.5708 67.0661 32.8759C66.591 33.1809 66.0395 33.4056 65.4182 33.5531C64.7936 33.7006 64.1391 33.7744 63.448 33.7744C62.1158 33.7744 60.9596 33.5497 59.9828 33.1005M76.0531 33.7744C74.1726 33.7744 72.6709 33.2011 71.548 32.0511C70.425 30.9012 69.8635 29.3791 69.8635 27.4782C69.8635 25.4129 70.4482 23.797 71.6177 22.637C72.7872 21.4736 74.3653 20.8936 76.3521 20.8936C78.3389 20.8936 79.7409 21.4569 80.8041 22.5867C81.8672 23.7165 82.3988 25.2822 82.3988 27.2837C82.3988 29.2852 81.824 30.8173 80.6778 31.9975C79.5316 33.1776 77.99 33.771 76.0531 33.771M76.1827 23.1131C75.1029 23.1131 74.249 23.4919 73.6244 24.2529C72.9965 25.014 72.6842 26.0633 72.6842 27.401C72.6842 28.7387 73.0032 29.7043 73.6377 30.4452C74.2723 31.1861 75.1228 31.5549 76.186 31.5549C77.2491 31.5549 78.1096 31.1895 78.691 30.462C79.2758 29.7345 79.5648 28.6951 79.5648 27.3507C79.5648 26.0064 79.2725 24.9503 78.691 24.2161C78.1063 23.4785 77.2724 23.1097 76.186 23.1097M91.0901 17.5343C90.718 17.3164 90.2927 17.2091 89.8176 17.2091C88.4754 17.2091 87.8043 17.9735 87.8043 19.5056V21.1752H90.6383V23.3611H87.8176V33.476H85.0567V23.3611H82.9736V21.1752H85.0567V19.1804C85.0567 17.883 85.4786 16.8604 86.3192 16.1095C87.1598 15.3618 88.2129 14.9863 89.4754 14.9863C90.1599 14.9863 90.6981 15.0634 91.0934 15.2143V17.5343H91.0901ZM99.2266 33.3452C98.6884 33.6168 97.9774 33.7542 97.097 33.7542C94.7314 33.7542 93.5487 32.6076 93.5487 30.3178V23.3611H91.5121V21.1752H93.5487V18.3289L96.3096 17.5377V21.1786H99.2266V23.3645H96.3096V29.5165C96.3096 30.2441 96.4424 30.7671 96.7016 31.0789C96.9641 31.3906 97.3993 31.5482 98.0106 31.5482C98.4791 31.5482 98.8844 31.4108 99.2233 31.1392V33.3486L99.2266 33.3452Z" fill="white"/>
<path d="M8.72202 40.1964C8.34991 39.9785 7.92464 39.8712 7.44955 39.8712C6.10731 39.8712 5.43619 40.6356 5.43619 42.1678V43.8374H8.27017V46.0233H5.44948V56.1381H2.6886V46.0233H0.605469V43.8374H2.6886V41.8426C2.6886 40.5451 3.11053 39.5225 3.95109 38.7716C4.79165 38.0239 5.84484 37.6484 7.10402 37.6484C7.7851 37.6484 8.32666 37.7255 8.72202 37.8764V40.1964ZM15.0312 56.4264C13.1507 56.4264 11.649 55.8531 10.5261 54.7032C9.4031 53.5532 8.84162 52.0311 8.84162 50.1302C8.84162 48.065 9.42636 46.449 10.5992 45.289C11.7686 44.1257 13.3467 43.5457 15.3302 43.5457C17.3137 43.5457 18.719 44.1089 19.7822 45.2387C20.8453 46.3686 21.3769 47.9342 21.3769 49.9358C21.3769 51.9373 20.8021 53.4694 19.6559 54.6495C18.5097 55.8296 16.9681 56.423 15.0312 56.423M15.1608 45.7651C14.081 45.7651 13.2271 46.1439 12.6025 46.905C11.9746 47.666 11.6623 48.7154 11.6623 50.0531C11.6623 51.3908 11.9779 52.3563 12.6158 53.0973C13.2504 53.8382 14.1009 54.207 15.1641 54.207C16.2272 54.207 17.0877 53.8415 17.6691 53.114C18.2539 52.3865 18.5429 51.3472 18.5429 50.0028C18.5429 48.6584 18.2506 47.6023 17.6691 46.8681C17.0844 46.1305 16.2505 45.7618 15.1641 45.7618M30.53 46.4826C30.1978 46.2177 29.7161 46.087 29.0881 46.087C28.2708 46.087 27.5864 46.4591 27.0415 47.2034C26.4934 47.9477 26.2209 48.9601 26.2209 50.2442V56.1314H23.46V43.8273H26.2209V46.3619H26.2674C26.5365 45.4969 26.9518 44.823 27.51 44.3369C28.0715 43.8508 28.6961 43.6094 29.3871 43.6094C29.8855 43.6094 30.2676 43.6865 30.53 43.8374V46.4792V46.4826ZM37.4904 55.4441V52.5005C37.7529 52.7419 38.0652 52.9565 38.424 53.1509C38.7861 53.342 39.1682 53.5063 39.5735 53.637C39.9788 53.7678 40.3842 53.8717 40.7862 53.9421C41.1915 54.0159 41.5636 54.0494 41.9058 54.0494C43.0952 54.0494 43.9823 53.8482 44.567 53.4493C45.1518 53.0503 45.4408 52.467 45.4408 51.7059C45.4408 51.2969 45.3445 50.9415 45.1484 50.6432C44.9524 50.3414 44.6833 50.0699 44.3345 49.8184C43.9856 49.5703 43.5736 49.3323 43.1019 49.1043C42.6301 48.8763 42.1251 48.6383 41.5835 48.3902C41.0055 48.0784 40.4639 47.7599 39.9655 47.4414C39.4672 47.1196 39.032 46.7675 38.6632 46.3786C38.2944 45.9897 38.0054 45.5505 37.7927 45.0611C37.5834 44.5716 37.4771 43.9983 37.4771 43.3445C37.4771 42.5365 37.6565 41.8325 38.0186 41.2357C38.3808 40.639 38.8559 40.1461 39.4473 39.7572C40.0386 39.3683 40.7098 39.08 41.4673 38.8923C42.2214 38.7045 42.9922 38.6106 43.7763 38.6106C45.5637 38.6106 46.8628 38.8151 47.6801 39.2242V42.0471C46.7133 41.343 45.4674 40.991 43.9424 40.991C43.5205 40.991 43.1019 41.0312 42.6866 41.1117C42.2713 41.1921 41.8959 41.3229 41.5669 41.5073C41.238 41.6917 40.9689 41.9297 40.7629 42.2147C40.5569 42.503 40.4539 42.8517 40.4539 43.2607C40.4539 43.6463 40.5337 43.9782 40.6931 44.2564C40.8526 44.538 41.0852 44.7928 41.3909 45.0242C41.6965 45.2555 42.0686 45.4835 42.5105 45.7048C42.9524 45.926 43.4607 46.1641 44.0421 46.4189C44.6368 46.7307 45.1983 47.0592 45.7265 47.4045C46.2548 47.7498 46.7199 48.1287 47.1186 48.5444C47.5206 48.9601 47.8362 49.4228 48.0721 49.9324C48.308 50.442 48.4243 51.0186 48.4243 51.669C48.4243 52.5407 48.2482 53.2783 47.8994 53.8784C47.5505 54.4785 47.0787 54.968 46.4874 55.3435C45.896 55.719 45.2149 55.9939 44.4441 56.1615C43.6733 56.3292 42.8593 56.413 42.0022 56.413C41.7164 56.413 41.3643 56.3895 40.949 56.3459C40.5337 56.3024 40.1051 56.2387 39.6699 56.1548C39.2346 56.071 38.8193 55.9671 38.4306 55.8498C38.0419 55.7291 37.7263 55.595 37.4904 55.4407M56.3581 55.9939C55.8199 56.2655 55.1089 56.4029 54.2285 56.4029C51.8629 56.4029 50.6802 55.2563 50.6802 52.9665V46.0098H48.6436V43.8239H50.6802V40.9776L53.4411 40.1864V43.8273H56.3581V46.0132H53.4411V52.1652C53.4411 52.8928 53.5706 53.4158 53.8331 53.7276C54.0956 54.0393 54.5308 54.1969 55.1421 54.1969C55.6106 54.1969 56.0159 54.0595 56.3548 53.7879V55.9973L56.3581 55.9939ZM67.704 56.1247H65.0262V54.2036H64.9797C64.1391 55.6788 62.9032 56.413 61.2785 56.413C60.0792 56.413 59.1422 56.0844 58.4612 55.4273C57.7834 54.7702 57.4412 53.9019 57.4412 52.8223C57.4412 50.499 58.7668 49.1445 61.4181 48.7623L65.0361 48.246C65.0361 46.4926 64.2122 45.6142 62.561 45.6142C61.1091 45.6142 59.8001 46.1171 58.6306 47.1263V44.6889C59.9164 43.9212 61.4015 43.5356 63.0826 43.5356C66.1624 43.5356 67.7007 45.0644 67.7007 48.1253V56.128L67.704 56.1247ZM65.0361 50.0833L62.4746 50.442C61.6805 50.5459 61.0825 50.7404 60.6838 51.0253C60.2818 51.3103 60.0825 51.8065 60.0825 52.5206C60.0825 53.0403 60.2652 53.4694 60.634 53.8013C61.0028 54.1332 61.4978 54.3008 62.1158 54.3008C62.9563 54.3008 63.654 54.0025 64.2055 53.4057C64.7571 52.8089 65.0328 52.058 65.0328 51.1527V50.0833H65.0361ZM76.8438 46.4792C76.5116 46.2144 76.0299 46.0836 75.4019 46.0836C74.5846 46.0836 73.9002 46.4557 73.3553 47.2C72.8071 47.9443 72.5347 48.9568 72.5347 50.2408V56.128H69.7738V43.8239H72.5347V46.3585H72.5812C72.8503 45.4935 73.2656 44.8197 73.8238 44.3335C74.382 43.8474 75.0099 43.606 75.7009 43.606C76.1993 43.606 76.5814 43.6831 76.8438 43.834V46.4759V46.4792ZM85.4322 55.9939C84.8939 56.2655 84.1829 56.4029 83.3025 56.4029C80.937 56.4029 79.7542 55.2563 79.7542 52.9665V46.0098H77.7176V43.8239H79.7542V40.9776L82.5151 40.1864V43.8273H85.4322V46.0132H82.5151V52.1652C82.5151 52.8928 82.648 53.4158 82.9071 53.7276C83.1696 54.0393 83.6048 54.1969 84.2161 54.1969C84.6846 54.1969 85.0899 54.0595 85.4288 53.7879V55.9973L85.4322 55.9939ZM98.0538 56.1247H95.2929V54.1768H95.2464C94.4457 55.6654 93.1998 56.413 91.5088 56.413C88.6283 56.413 87.1863 54.6663 87.1863 51.1762V43.8239H89.9472V50.8879C89.9472 53.0973 90.7911 54.2036 92.4822 54.2036C93.2995 54.2036 93.9739 53.8985 94.4989 53.2917C95.0271 52.6815 95.2896 51.887 95.2896 50.9013V43.8239H98.0505V56.128L98.0538 56.1247ZM103.034 54.3109H102.988V61.7839H100.227V43.8239H102.988V45.9864H103.034C103.978 44.3537 105.36 43.5356 107.177 43.5356C108.725 43.5356 109.931 44.0854 110.795 45.1818C111.659 46.2781 112.094 47.7532 112.094 49.6038C112.094 51.6556 111.606 53.2951 110.629 54.5288C109.652 55.7626 108.32 56.3795 106.629 56.3795C105.074 56.3795 103.875 55.6888 103.034 54.3143M102.964 49.4597V50.9851C102.964 51.8803 103.247 52.6413 103.815 53.2682C104.383 53.8918 105.104 54.207 105.974 54.207C106.998 54.207 107.802 53.8047 108.386 53C108.971 52.1954 109.26 51.0723 109.26 49.6307C109.26 48.4204 108.988 47.4749 108.443 46.791C107.898 46.1071 107.164 45.7651 106.233 45.7651C105.25 45.7651 104.456 46.1171 103.858 46.8212C103.26 47.5252 102.958 48.407 102.958 49.463M113.43 55.7458V53.1643C114.463 53.9555 115.599 54.3545 116.845 54.3545C118.513 54.3545 119.347 53.8583 119.347 52.8659C119.347 52.5843 119.274 52.3463 119.131 52.1518C118.988 51.9574 118.795 51.783 118.553 51.6288C118.31 51.4746 118.025 51.3405 117.696 51.2198C117.367 51.0991 116.998 50.965 116.596 50.8108C116.094 50.6096 115.646 50.3984 115.244 50.1738C114.842 49.9492 114.509 49.6944 114.244 49.4094C113.978 49.1244 113.779 48.8026 113.642 48.4405C113.506 48.0818 113.44 47.6593 113.44 47.1799C113.44 46.5865 113.579 46.0635 113.855 45.6109C114.134 45.1583 114.506 44.7761 114.975 44.4676C115.443 44.1592 115.975 43.9279 116.569 43.7703C117.164 43.6127 117.779 43.5356 118.413 43.5356C119.54 43.5356 120.55 43.7066 121.437 44.0519V46.4926C120.579 45.8992 119.596 45.6042 118.483 45.6042C118.134 45.6042 117.819 45.6411 117.536 45.7115C117.254 45.7819 117.015 45.8824 116.815 46.0132C116.616 46.1406 116.463 46.2948 116.35 46.4759C116.24 46.6569 116.184 46.8547 116.184 47.0693C116.184 47.3341 116.24 47.5588 116.35 47.7431C116.46 47.9275 116.626 48.0885 116.845 48.2293C117.064 48.3701 117.327 48.4975 117.629 48.6148C117.935 48.7322 118.287 48.8562 118.682 48.9937C119.207 49.2082 119.676 49.4295 120.094 49.6541C120.51 49.8788 120.865 50.1336 121.161 50.4185C121.453 50.7035 121.679 51.0321 121.839 51.4042C121.998 51.7763 122.078 52.2189 122.078 52.7318C122.078 53.3554 121.935 53.9019 121.649 54.3645C121.364 54.8306 120.981 55.2128 120.506 55.5178C120.031 55.8229 119.48 56.0476 118.858 56.1951C118.234 56.3426 117.579 56.4163 116.888 56.4163C115.556 56.4163 114.4 56.1917 113.423 55.7425" fill="white"/>
</svg>