<svg width="142" height="35" viewBox="0 0 142 35" fill="none" xmlns="http://www.w3.org/2000/svg">
<path d="M15.1452 27.8535L12.9731 30.0256C10.0053 32.9934 5.19359 32.9934 2.22582 30.0256C-0.737851 27.0619 -0.742533 22.2583 2.21536 19.2889L4.40732 17.0883L15.1452 27.8535Z" fill="#5B77FF"/>
<path d="M15.1383 17.0902L15.1429 27.8536L4.40134 17.0897L15.1383 17.0902Z" fill="#6D86FF"/>
<path d="M15.1447 6.35204L17.3436 4.16071C20.3125 1.20196 25.1165 1.20607 28.0803 4.1699C31.0477 7.13731 31.0477 11.9484 28.0803 14.9159L25.9075 17.0886L15.1447 6.35204Z" fill="#9AABFF"/>
<path d="M15.1387 17.0946L15.1433 6.34956L25.909 17.0885L15.1387 17.0946Z" fill="#8CA0FF"/>
<path d="M25.9062 17.0876L28.0946 19.2842C31.0557 22.2562 31.0512 27.0645 28.0847 30.0311C25.1182 32.9975 20.3101 33.0021 17.338 30.0413L15.1413 27.8529L25.9062 17.0876Z" fill="#8599FF"/>
<path d="M15.1356 17.0936L25.9094 17.0874L15.1432 27.8547L15.1356 17.0936Z" fill="#7E94FF"/>
<path d="M4.40577 17.0885L2.22839 14.9111C-0.736483 11.9462 -0.736482 7.13922 2.2284 4.17434C5.19327 1.20946 10.0003 1.20947 12.9652 4.17434L15.143 6.35213L4.40577 17.0885Z" fill="#738AFF"/>
<path d="M15.1381 17.0936L4.40002 17.0914L15.143 6.35213L15.1381 17.0936Z" fill="#778EFF"/>
<path d="M0.0215046 10.1176H0.0286699C0.160432 11.8648 0.894876 13.5751 2.23081 14.9112L4.40349 17.0839L4.41056 17.0908L4.40349 17.0962L2.23971 19.2766C0.876308 20.64 0.130975 22.3853 0.0215046 24.1696V10.1176Z" fill="#6881FE"/>
<path d="M22.1347 1.96522V1.97239C20.3876 2.10415 18.6773 2.83859 17.3411 4.17452L15.1562 6.34413L15.1452 6.35508L15.143 6.35213L12.9726 4.18333C11.6092 2.81994 9.87028 2.09334 8.08277 1.96522L22.1347 1.96522Z" fill="#8398FF"/>
<path d="M50.9651 24.106V10.042H64.1257" stroke="white" stroke-width="8.49638" stroke-linecap="round" stroke-linejoin="round"/>
<path d="M104.573 10.0425L104.573 24.1064L117.733 24.1064" stroke="white" stroke-width="8.49638" stroke-linecap="round" stroke-linejoin="round"/>
<path d="M94.1855 24.106V10.042" stroke="white" stroke-width="8.49638" stroke-linecap="round" stroke-linejoin="round"/>
<path d="M64.3706 24.1057L74.3153 14.161M74.3153 14.161L84.0523 23.898M74.3153 14.161V10.0806" stroke="white" stroke-width="8.49638" stroke-linecap="round" stroke-linejoin="round"/>
<path d="M136.93 10.1045L128.025 19.0101M128.025 19.0101L119.114 10.0991M128.025 19.0101V24.1053" stroke="white" stroke-width="8.49638" stroke-linecap="round" stroke-linejoin="round"/>
</svg>
