<svg width="102" height="21" viewBox="0 0 102 21" fill="none" xmlns="http://www.w3.org/2000/svg">
<path d="M9.22348 2.63254C9.5547 1.78404 10.7554 1.78404 11.0866 2.63254L12.5004 6.25448C12.6425 6.61859 12.9838 6.86651 13.374 6.88917L17.2555 7.11455C18.1648 7.16735 18.5359 8.30925 17.8313 8.88645L14.8235 11.3503C14.5211 11.598 14.3908 11.9992 14.4898 12.3773L15.4749 16.1385C15.7057 17.0196 14.7343 17.7254 13.9677 17.2336L10.6949 15.1344C10.3659 14.9234 9.94413 14.9234 9.61513 15.1344L6.3424 17.2336C5.57572 17.7254 4.60435 17.0196 4.83514 16.1385L5.82026 12.3773C5.91929 11.9992 5.78895 11.598 5.48658 11.3503L2.4788 8.88645C1.77418 8.30925 2.14521 7.16735 3.05453 7.11455L6.93609 6.88917C7.3263 6.86651 7.66754 6.61859 7.80967 6.25448L9.22348 2.63254Z" fill="#FFB900"/>
<path d="M29.5335 2.63254C29.8648 1.78404 31.0654 1.78404 31.3966 2.63254L32.8104 6.25448C32.9526 6.61859 33.2938 6.86651 33.684 6.88917L37.5656 7.11455C38.4749 7.16735 38.8459 8.30925 38.1413 8.88645L35.1335 11.3503C34.8312 11.598 34.7008 11.9992 34.7999 12.3773L35.785 16.1385C36.0158 17.0196 35.0444 17.7254 34.2777 17.2336L31.005 15.1344C30.676 14.9234 30.2542 14.9234 29.9252 15.1344L26.6525 17.2336C25.8858 17.7254 24.9144 17.0196 25.1452 16.1385L26.1303 12.3773C26.2293 11.9992 26.099 11.598 25.7966 11.3503L22.7889 8.88645C22.0842 8.30925 22.4553 7.16735 23.3646 7.11455L27.2461 6.88917C27.6364 6.86651 27.9776 6.61859 28.1197 6.25448L29.5335 2.63254Z" fill="#FFB900"/>
<path d="M49.8436 2.63254C50.1748 1.78404 51.3755 1.78404 51.7067 2.63254L53.1205 6.25448C53.2626 6.61859 53.6039 6.86651 53.9941 6.88917L57.8756 7.11455C58.785 7.16735 59.156 8.30925 58.4514 8.88645L55.4436 11.3503C55.1412 11.598 55.0109 11.9992 55.1099 12.3773L56.095 16.1385C56.3258 17.0196 55.3545 17.7254 54.5878 17.2336L51.315 15.1344C50.986 14.9234 50.5642 14.9234 50.2352 15.1344L46.9625 17.2336C46.1958 17.7254 45.2245 17.0196 45.4553 16.1385L46.4404 12.3773C46.5394 11.9992 46.4091 11.598 46.1067 11.3503L43.0989 8.88645C42.3943 8.30925 42.7653 7.16735 43.6746 7.11455L47.5562 6.88917C47.9464 6.86651 48.2877 6.61859 48.4298 6.25448L49.8436 2.63254Z" fill="#FFB900"/>
<path d="M70.1537 2.63254C70.4849 1.78404 71.6855 1.78404 72.0168 2.63254L73.4306 6.25448C73.5727 6.61859 73.9139 6.86651 74.3041 6.88917L78.1857 7.11455C79.095 7.16735 79.466 8.30925 78.7614 8.88645L75.7537 11.3503C75.4513 11.598 75.3209 11.9992 75.42 12.3773L76.4051 16.1385C76.6359 17.0196 75.6645 17.7254 74.8978 17.2336L71.6251 15.1344C71.2961 14.9234 70.8743 14.9234 70.5453 15.1344L67.2726 17.2336C66.5059 17.7254 65.5345 17.0196 65.7653 16.1385L66.7504 12.3773C66.8495 11.9992 66.7191 11.598 66.4168 11.3503L63.409 8.88645C62.7044 8.30925 63.0754 7.16735 63.9847 7.11455L67.8663 6.88917C68.2565 6.86651 68.5977 6.61859 68.7398 6.25448L70.1537 2.63254Z" fill="#FFB900"/>
<path d="M90.4637 2.63254C90.7949 1.78404 91.9956 1.78404 92.3268 2.63254L93.7406 6.25448C93.8828 6.61859 94.224 6.86651 94.6142 6.88917L98.4958 7.11455C99.4051 7.16735 99.7761 8.30925 99.0715 8.88645L96.0637 11.3503C95.7613 11.598 95.631 11.9992 95.73 12.3773L96.7152 16.1385C96.9459 17.0196 95.9746 17.7254 95.2079 17.2336L91.9352 15.1344C91.6062 14.9234 91.1844 14.9234 90.8554 15.1344L87.5826 17.2336C86.816 17.7254 85.8446 17.0196 86.0754 16.1385L87.0605 12.3773C87.1595 11.9992 87.0292 11.598 86.7268 11.3503L83.719 8.88645C83.0144 8.30925 83.3854 7.16735 84.2948 7.11455L88.1763 6.88917C88.5665 6.86651 88.9078 6.61859 89.0499 6.25448L90.4637 2.63254Z" fill="#FFB900"/>
</svg>
