<svg width="322" height="41" viewBox="0 0 322 41" fill="none" xmlns="http://www.w3.org/2000/svg">
<path d="M307.202 14.2927C216.543 14.3906 50.9752 14.3066 17.5114 14.2881C13.563 14.2859 9.82122 15.5819 6.68185 17.9765L2.79971 20.9376C0.517202 22.6786 1.7484 26.3229 4.6191 26.3229L317.388 26.3266C320.076 26.3266 321.407 23.0647 319.488 21.1838L316.246 18.0075C313.812 15.6228 310.61 14.289 307.202 14.2927Z" fill="black" stroke="#5B77FF" stroke-width="2"/>
<path d="M307.256 18.907L16.6756 18.9022C15.6617 18.9022 14.6643 19.1592 13.7766 19.649L12.8209 20.1764C11.9162 20.6757 12.2707 22.052 13.3041 22.052L310.449 22.0471C311.417 22.0471 311.82 20.8096 311.038 20.2392L310.793 20.0599C309.766 19.3107 308.527 18.907 307.256 18.907Z" fill="#5B77FF" stroke="#5B77FF"/>
</svg>
