<svg xmlns="http://www.w3.org/2000/svg" width="61" height="28" viewBox="0 0 61 28" fill="none">
<path d="M53.7559 20.5447L53.6812 13.3214C53.6453 9.85643 50.8263 7.06641 47.3611 7.06641H15.1172C11.6266 7.06641 8.79688 9.89614 8.79688 13.3868V20.6101C8.79688 24.1007 11.6266 26.9304 15.1172 26.9304H15.9927H20.5967C22.2575 26.9304 23.8515 26.2768 25.0341 25.1109L26.6883 23.4799C27.8709 22.314 29.4649 21.6604 31.1256 21.6604H31.4206C33.1242 21.6604 34.7558 22.3482 35.9453 23.5678L37.3645 25.023C38.554 26.2427 40.1856 26.9304 41.8892 26.9304H47.4359C50.9521 26.9304 53.7923 24.0607 53.7559 20.5447Z" stroke="white" stroke-width="2" stroke-linecap="round"/>
<line x1="15.7578" y1="17.3213" x2="24.352" y2="17.3213" stroke="white" stroke-width="2" stroke-linecap="round"/>
<line x1="26.3516" y1="1.43066" x2="34.9457" y2="1.43066" stroke="white" stroke-width="2" stroke-linecap="round"/>
<line x1="1.67187" y1="12.0391" x2="1.67187" y2="20.6332" stroke="white" stroke-width="2" stroke-linecap="round"/>
<line x1="59.4609" y1="12.0391" x2="59.4609" y2="20.6332" stroke="white" stroke-width="2" stroke-linecap="round"/>
</svg>